<!DOCTYPE svg PUBLIC "-//W3C//DTD SVG 1.1//EN" "http://www.w3.org/Graphics/SVG/1.1/DTD/svg11.dtd">
<svg fill="#FF90BB" version="1.1" id="Capa_1" xmlns="http://www.w3.org/2000/svg" xmlns:xlink="http://www.w3.org/1999/xlink" viewBox="-37.33 -37.33 541.24 541.24" xml:space="preserve" stroke="#FF90BB" transform="rotate(0)" stroke-width="0.004665830000000001"><g id="SVGRepo_bgCarrier" stroke-width="0"></g><g id="SVGRepo_tracerCarrier" stroke-linecap="round" stroke-linejoin="round" stroke="#8ACCD5" stroke-width="30"> <g> <path d="M233.292,0c-85.1,0-154.334,69.234-154.334,154.333c0,34.275,21.887,90.155,66.908,170.834 c31.846,57.063,63.168,104.643,64.484,106.64l22.942,34.775l22.941-34.774c1.317-1.998,32.641-49.577,64.483-106.64 c45.023-80.68,66.908-136.559,66.908-170.834C387.625,69.234,318.391,0,233.292,0z M233.292,233.291c-44.182,0-80-35.817-80-80 s35.818-80,80-80c44.182,0,80,35.817,80,80S277.473,233.291,233.292,233.291z"></path> </g> </g><g id="SVGRepo_iconCarrier"> <g> <path d="M233.292,0c-85.1,0-154.334,69.234-154.334,154.333c0,34.275,21.887,90.155,66.908,170.834 c31.846,57.063,63.168,104.643,64.484,106.64l22.942,34.775l22.941-34.774c1.317-1.998,32.641-49.577,64.483-106.64 c45.023-80.68,66.908-136.559,66.908-170.834C387.625,69.234,318.391,0,233.292,0z M233.292,233.291c-44.182,0-80-35.817-80-80 s35.818-80,80-80c44.182,0,80,35.817,80,80S277.473,233.291,233.292,233.291z"></path> </g> </g></svg>
